PathFileType	4	(X/Y/Z)	Patient4_TMGait_0pt3_01_right_16.trc.trc
DataRate	CameraRate	NumFrames	NumMarkers	Units	OrigDataRate	OrigDataStartFrame	OrigNumFrames
52.434456928839	52.434456928839	4	33	mm	52.434456928839	89	       141
Frame#	Time	Sacral			L.Shoulder			Chest			R.Shoulder			Neck			R.ASIS			L.ASIS			R.Thigh.Superior			R.Thigh.Lateral			R.Thigh.Inferior			R.Patella			L.Thigh.Superior			L.Thigh.Lateral			L.Thigh.Inferior			L.Patella			L.Shank.Superior			L.Shank.Lateral			L.Shank.Inferior			R.Shank.Superior			R.Shank.Lateral			R.Shank.Inferior			R.Heel			R.Midfoot.Superior			R.Midfoot.Lateral			R.Toe			L.Heel			L.Midfoot.Lateral			L.Midfoot.Superior			L.Toe			L.Elbow			L.Wrist			R.Elbow			R.Wrist			
		X1	Y1	Z1	X2	Y2	Z2	X3	Y3	Z3	X4	Y4	Z4	X5	Y5	Z5	X6	Y6	Z6	X7	Y7	Z7	X8	Y8	Z8	X9	Y9	Z9	X10	Y10	Z10	X11	Y11	Z11	X12	Y12	Z12	X13	Y13	Z13	X14	Y14	Z14	X15	Y15	Z15	X16	Y16	Z16	X17	Y17	Z17	X18	Y18	Z18	X19	Y19	Z19	X20	Y20	Z20	X21	Y21	Z21	X22	Y22	Z22	X23	Y23	Z23	X24	Y24	Z24	X25	Y25	Z25	X26	Y26	Z26	X27	Y27	Z27	X28	Y28	Z28	X29	Y29	Z29	X30	Y30	Z30	X31	Y31	Z31	X32	Y32	Z32	X33	Y33	Z33	

89	30.428285714286	805.387621443945	998.437300995978	531.576380343198	929.245544214712	1429.985707964068	339.354584136109	1056.943269636996	1370.620645364757	486.230395667250	990.650396740270	1441.676524124410	667.889412334336	928.820784679302	1492.630698048103	498.223035489910	1043.215811142949	935.834789449506	630.560822075570	1009.602798102389	964.121460214771	358.288829104248	1047.059130916447	723.051726920037	607.496438774279	947.567584239012	624.551400932391	670.605425569333	1014.557151285114	558.433345361314	594.733189457559	994.292152415961	461.214860918124	606.789750204002	1081.521260620322	762.632542848498	392.325409831463	1010.703093490666	634.297185425391	331.734878409084	1105.707013495709	568.696282550412	394.973249595818	1115.180101732776	497.784358793390	402.352588315931	1090.571624969285	423.007560416747	395.148219611977	1006.271009767587	304.896372238597	344.565797607286	1063.134149283776	195.548166153694	413.466347137142	931.654384528300	387.815080099010	613.799902294867	824.881508884576	318.891396697130	674.902714085752	833.623979471863	212.160078507461	618.398912093068	652.956558643330	86.123928694559	586.459135808211	827.957486924369	101.320223435058	629.335268732980	728.556279413696	59.969341453898	664.082808637041	932.524298962780	36.849205296401	665.985326169462	939.923855831296	37.836182575598	453.169951433759	1014.261250096968	36.179391188152	372.775578760400	1097.286677807650	97.230556455793	400.577079445644	1225.391695671649	46.614124256027	371.931344223340	897.889743009920	1075.256596752384	232.565541836710	995.828422689337	833.451900730211	218.843970095324	1161.776576827993	1146.806039488702	779.943623513737	1416.085826576706	1170.950841669564	748.937495695112	
90	30.447357142857	806.036949003159	999.193412749332	525.906922966888	931.512654872756	1431.773273946123	335.855293725148	1057.611579278017	1371.896959011740	483.912156368026	989.394492615798	1442.312541878051	665.060424232901	929.080830615270	1493.750709281182	494.935572602507	1043.214775538271	936.887044713373	626.351602972141	1011.126465108474	965.364592064223	353.956510871461	1049.613006711574	724.470863514344	604.000204790528	951.543134359154	625.266791850117	667.610108255552	1019.950680944623	559.206799933433	592.345651995475	1000.449184003228	460.665058859676	605.997090952993	1081.195660026490	762.093420253024	387.905583134233	1008.579096631131	634.268520749379	328.397306489486	1102.609443715895	567.854723272368	391.942998324823	1111.214326522736	497.095256428583	399.883295516452	1086.352110404936	422.516361392499	393.004375312829	1001.626828922559	304.473465558764	343.018409351078	1057.968543993679	195.340779200513	412.684811551910	935.717412792906	388.393697285401	612.917928361821	826.865184287074	322.543588363428	673.674620360440	833.870190574267	214.885428443872	618.388784107611	650.152537557492	93.842437034268	586.693919372190	825.619698114795	102.654175916544	630.035496188486	724.687206688238	64.630145566107	664.249365102408	927.111986446797	36.516861892756	666.056388770379	934.158021337905	37.845511684279	453.136177355884	1008.475362582040	36.125758740318	372.709870779488	1091.592131136167	97.120398224443	400.417050327418	1219.698908189320	46.267417205349	371.864823010967	911.341355164359	1077.258232888610	225.006530459223	1013.890491785389	837.631240280309	211.480392593861	1152.765168935873	1141.174380161937	776.751357403365	1408.915450878534	1148.959596235995	750.629266877407	
91	30.466428571429	806.610578608577	999.636755063574	520.264199592589	933.672852100293	1433.341302925320	332.464139488986	1058.100489314181	1372.929983198895	481.716461119948	987.885655878014	1442.622346040081	662.333239163602	929.180805628018	1494.605218939711	491.713889462604	1043.088162453785	937.744747907820	622.192995896704	1012.712498803794	966.383676881733	349.677404659295	1052.438194222199	725.760051099509	600.493414382228	955.994036390053	625.758975746818	664.617395350256	1025.839471328429	559.889719023574	589.823872651070	1007.209223534913	460.014606106842	605.094821016208	1081.080682886865	761.505296717250	383.722312434748	1006.962724712302	634.141029058140	325.077794362210	1100.084377023766	567.008437524829	388.958646583414	1107.871390558296	496.318497646644	397.390950461596	1082.648002573735	421.893104041087	390.847028618711	997.310506620949	304.042709815274	341.392352287168	1052.980329131773	195.072163378602	411.880222360281	940.415565076510	388.879229045384	611.951521479964	829.496463451648	326.319832762781	672.328274181753	834.627403911153	217.790184874987	618.265057197458	647.898559398855	102.254917075707	586.649111361168	823.592174561295	104.283543827866	630.680814362389	721.085681665382	69.945493661948	664.233019944806	921.621236749295	36.135044081959	666.150175481151	928.390920078898	37.857832596053	453.084367326917	1002.695748925051	36.072577629153	372.628906823970	1085.899214407150	97.020693089264	400.250089032779	1214.008992290589	45.956718641184	371.816052451030	924.466061948884	1079.473459725735	217.662206803404	1032.120967102456	842.332095478609	204.416759634429	1142.784307459158	1135.195070300909	773.804300234468	1399.571766116314	1125.279326218411	752.605502996681	
92	30.485500000000	807.053085437723	999.695752957500	514.672204647011	935.748961003604	1434.597668040264	329.193290223692	1058.420927101574	1373.620608872252	479.657699097549	986.139347468653	1442.519740881859	659.719287058879	929.151938445322	1495.119027451860	488.571049556329	1042.788356646607	938.332584136585	618.130886270184	1014.361313719370	967.120130613223	345.489260450820	1055.549616685448	726.889885937372	596.999200330722	960.969208461430	625.978861601055	661.634360362803	1032.284350428000	560.462455274063	587.174930620099	1014.647098964115	459.238629102793	604.051401233601	1081.212170038582	760.846412571659	379.795263763816	1005.922538167466	633.866422107822	321.801918509298	1098.244368241119	566.137357975239	386.031065505989	1105.297198042926	495.429672114578	394.888366741233	1079.576704502139	421.092470545994	388.700686310516	993.407807762287	303.589040161332	339.711431344625	1048.202899572819	194.709542673789	411.064861448178	945.808829729196	389.239208074127	610.863597509297	832.837628982687	330.210368773027	670.818108927980	835.918926845540	220.894278560705	617.967602179385	646.281461637202	111.416613558067	586.214106951727	821.884703602344	106.307235597308	631.208525912850	717.801420692856	76.011362514166	663.945060206124	916.063001990933	35.675258131040	666.263934347915	922.628170748665	37.870213097595	453.015760901287	996.926321639166	36.019935910775	372.532640372042	1080.211535214987	96.927624983690	400.081987595001	1208.324662453865	45.682443240606	371.781344299459	937.144515524790	1081.770981877435	210.624760556508	1050.403142973416	847.449576645866	197.704542067294	1131.885877222768	1128.892518398570	771.073317899025	1387.852620711527	1100.099788409884	754.749883053734	
